<svg xmlns="http://www.w3.org/2000/svg"
shape-rendering="geometricPrecision"
width="4000" height="4000" viewBox="0 0 1024 1024">
  <metadata>null</metadata>

<path d="
M 398.427 483.607
C 399.52 476.471 400.544 469.493 402.598 462.534
C 405.017 454.337 408.668 446.454 412.713 438.944
C 416.971 431.038 422.296 423.726 427.094 416.149
C 434.771 404.024 441.603 390.635 443.806 376.312
C 444.755 370.143 444.402 364.276 443.753 358.129
C 445.002 358.249 445.726 360.264 446.331 361.324
C 448.179 364.566 449.698 368.037 450.981 371.537
C 456.633 386.961 457.649 404.662 453.398 420.539
C 455.389 419.422 456.772 416.483 458.066 414.639
C 461.751 409.384 465.181 404.004 468.461 398.488
C 481.983 375.745 486.891 349.015 481.728 323.057
C 480.118 314.96 477.036 307.289 473.831 299.727
C 473.876 298.667 477.113 300.877 477.974 301.353
C 482.475 303.846 486.804 306.597 491.115 309.402
C 502.295 316.678 513.32 324.86 522.642 334.447
C 531.495 343.552 538.876 354.166 543.242 366.152
C 548.8 381.41 549.121 398.447 546.166 414.285
C 545.066 420.178 543.346 426.192 540.998 431.711
C 539.738 434.672 537.959 437.661 537.042 440.735
C 538.296 440.696 539.678 439.348 540.748 438.713
C 544.605 436.422 548.227 433.218 551.211 429.885
C 553.495 427.333 555.556 424.553 557.175 421.532
C 565.906 405.242 562.92 387.58 559.458 370.372
C 561.151 371.42 562.438 374.377 563.44 376.089
C 566.149 380.714 568.98 385.258 571.567 389.955
C 580.812 406.737 590.447 423.81 596.892 441.908
C 598.537 446.529 600.319 451.232 601.339 456.041
C 601.611 457.324 602.669 459.486 602.397 460.733
C 583.132 451.589 559.59 452.303 539.889 459.567
C 535.23 461.284 531.186 464.095 526.729 466.185
C 524.954 464.931 523.521 462.626 521.879 461.115
C 518.815 458.295 515.16 456.05 511.363 454.355
C 503.374 450.788 494.611 450.553 486.02 450.528
C 478.348 450.505 470.675 450.52 463.003 450.533
C 457.503 450.542 452.002 450.519 446.503 450.569
C 445.337 450.579 441.758 450.086 440.988 450.923
C 440.804 476.279 440.84 501.647 440.898 527.005
C 440.916 535.005 440.952 543.005 440.949 551.005
C 440.948 554.804 440.356 559.108 440.983 562.851
C 446.773 562.037 453.152 562.741 459.007 562.699
C 460.505 562.689 462.003 562.665 463.501 562.652
C 463.82 562.65 464.787 562.81 464.938 562.513
C 464.385 550.522 464.815 538.336 464.964 526.333
C 471.639 525.979 478.415 526.162 485.093 526.345
C 486.991 528.646 488.461 531.468 490.105 533.963
C 491.25 535.699 492.807 537.444 493.558 539.396
C 493.987 540.513 493.846 541.855 493.935 543.033
C 494.104 545.269 494.438 547.498 494.934 549.684
C 496.51 556.631 499.3 563.313 502.882 569.463
C 510.35 582.288 523.36 593.118 537.041 598.737
C 540.543 600.175 544.188 601.334 547.875 602.188
C 549.962 602.672 552.463 602.832 554.421 603.673
C 553.712 604.448 551.757 604.503 550.781 604.75
C 547.564 605.565 544.366 606.327 541.107 607.013
C 526.686 610.048 511.169 609.726 496.704 607.179
C 449.539 598.872 408.847 561.094 400.071 513.477
C 398.263 503.667 397.612 493.564 398.427 483.607 Z"
opacity="1" fill="rgb(240,104,31)" fill-rule="evenodd" />
<path d="
M 464.956 473.621
C 465.023 472.971 465.01 473.34 464.948 472.514
C 471.194 471.547 478.137 472.275 484.459 472.283
C 489.913 472.29 495.7 472.451 500.365 475.69
C 507.942 480.95 508.768 492.729 502.863 499.595
C 496.527 506.962 483.261 505 474.654 504.924
C 472.559 504.906 470.459 504.852 468.364 504.913
C 467.322 504.943 465.998 505.225 465.072 504.732
C 464.534 500.257 464.925 495.504 464.917 490.995
C 464.906 485.237 464.586 479.366 464.956 473.621 Z"
opacity="1" fill="rgb(241,106,30)" fill-rule="evenodd" />
<path d="
M 508.951 522.103
C 510.348 513.772 512.085 505.914 516.397 498.501
C 528.92 476.97 554.507 466.611 578.714 470.361
C 588.928 471.943 598.942 475.163 606.912 482.008
C 608.707 483.549 610.457 485.107 611.992 486.916
C 612.479 487.491 613.274 488.169 613.469 488.901
C 612.061 491.031 609.299 492.823 607.421 494.56
C 604.263 497.482 601.28 500.827 597.975 503.546
C 595.744 502.383 594.023 499.718 591.921 498.233
C 586.4 494.333 579.883 491.915 573.16 491.272
C 565.806 490.57 558.398 491.797 551.82 495.187
C 545.877 498.249 540.796 503.301 537.702 509.216
C 528.954 525.943 533.352 550.402 549.223 561.238
C 558.209 567.373 570.306 568.226 580.543 565.221
C 585.046 563.9 589.996 561.493 592.935 557.704
C 596.602 552.977 596.578 547.13 597.266 541.503
C 588.572 541.793 579.667 540.594 570.995 541.419
C 570.574 538.696 570.847 535.749 570.85 532.999
C 570.855 528.934 570.739 524.841 570.95 520.782
C 578.988 519.938 587.422 520.547 595.503 520.535
C 604.69 520.521 614.139 519.947 623.298 520.666
C 623.724 522.429 623.347 524.648 623.346 526.471
C 623.345 530.521 623.435 534.58 623.211 538.625
C 622.59 549.817 620.153 562.355 612.667 571.113
C 609.021 575.379 604.156 578.651 599.329 581.437
C 569.416 598.7 526.689 587.211 513.118 554.382
C 508.986 544.386 507.869 532.817 508.951 522.103 Z"
opacity="1" fill="rgb(61,61,61)" fill-rule="evenodd" />

</svg>